<?xml version="1.0" encoding="UTF-8"?>
<svg id="_레이어_1" data-name="레이어_1" xmlns="http://www.w3.org/2000/svg" version="1.1" viewBox="0 0 1024 1024">
  <!-- Generator: Adobe Illustrator 30.3.0, SVG Export Plug-In . SVG Version: 2.1.3 Build 182)  -->
  <defs>
    <style>
      .st0 {
        fill: #fff400;
      }
    </style>
  </defs>
  <path class="st0" d="M210.23,261l12,39.95c2.16,7.18,10.01,10.96,16.96,8.17l38.72-15.53c7.22-2.9,13.8,5.35,9.37,11.75l-23.76,34.29c-4.27,6.16-2.33,14.65,4.19,18.35l36.28,20.59c6.77,3.84,4.42,14.13-3.34,14.65l-41.62,2.81c-7.48.5-12.91,7.32-11.74,14.72l6.52,41.2c1.22,7.69-8.29,12.27-13.54,6.52l-28.15-30.79c-5.06-5.53-13.77-5.53-18.82,0l-28.15,30.79c-5.25,5.74-14.76,1.16-13.54-6.52l6.52-41.2c1.17-7.4-4.26-14.21-11.74-14.72l-41.62-2.81c-7.76-.52-10.11-10.81-3.34-14.65l36.28-20.59c6.52-3.7,8.46-12.19,4.19-18.35l-23.76-34.29c-4.43-6.4,2.15-14.65,9.37-11.75l38.72,15.53c6.96,2.79,14.8-.99,16.96-8.17l12-39.95c2.24-7.45,12.79-7.45,15.03,0h0Z"/>
</svg>