<?xml version="1.0" encoding="UTF-8"?>
<svg id="_레이어_1" data-name="레이어_1" xmlns="http://www.w3.org/2000/svg" version="1.1" viewBox="0 0 1024 1024">
  <!-- Generator: Adobe Illustrator 30.3.0, SVG Export Plug-In . SVG Version: 2.1.3 Build 182)  -->
  <defs>
    <style>
      .st0 {
        fill: #ffc800;
      }
    </style>
  </defs>
  <path class="st0" d="M816.62,619.58l9.38,31.24c1.69,5.61,7.82,8.57,13.26,6.39l30.27-12.14c5.65-2.27,10.79,4.19,7.33,9.19l-18.57,26.81c-3.34,4.82-1.82,11.46,3.28,14.35l28.37,16.1c5.29,3,3.46,11.05-2.62,11.46l-32.54,2.2c-5.85.39-10.09,5.72-9.18,11.51l5.1,32.22c.95,6.01-6.48,9.59-10.59,5.1l-22.01-24.07c-3.95-4.32-10.76-4.32-14.72,0l-22.01,24.07c-4.11,4.49-11.54.91-10.59-5.1l5.1-32.22c.92-5.79-3.33-11.11-9.18-11.51l-32.54-2.2c-6.07-.41-7.91-8.45-2.62-11.46l28.37-16.1c5.1-2.89,6.61-9.53,3.28-14.35l-18.57-26.81c-3.46-5,1.68-11.45,7.33-9.19l30.27,12.14c5.44,2.18,11.58-.77,13.26-6.39l9.38-31.24c1.75-5.83,10-5.83,11.75,0h0Z"/>
</svg>